<global>
amp_veltrack=0
ampeg_release=0.25

<group>
group_label=PP
lpc_hicc1=63
lpc_locc1=0

<region>
hikey=a#2
hivel=127
lokey=a2
lovel=0
lpc=G0gGQvEGm8IYRLNCyDqxwj8GkELnITrCgLHiQW/losEjEo1BEG9bwRsLG0F/isnArQGeP4bx5EC/nUrBu2GMQTq7oMHbEnZBZZTkwOsWUEAHf32/ZaaJvrxgob41AEM+
lpc_rms=-31.76
pitch_keycenter=a#2
sample=Contrabass_overblown_sus_PP_A#2.opus

<region>
hikey=a#3
hivel=127
lokey=a3
lovel=0
lpc=bVQnQqAexMJPUN5CvnrawkAwuUL1UYDCK5cwQoIECcJrBeNBtmOgwfKvL0Fy9/7ADWVjQLtI70CyEEnBFROcQdWsxMEWNZxB6/5EwYGDJEEbMQrBEzUFQUWeAMF5rypA
lpc_rms=-36.44
pitch_keycenter=a#3
sample=Contrabass_overblown_sus_PP_A#3.opus

<region>
hikey=a#4
hivel=127
lokey=a4
lovel=0
lpc=CSwiQj/gr8InlMxCgWnLwlvIpkKvIk7CwDEMQhmS5cHit7lB3xWQwUF28EDx75bADvQEQJObvkBafSjBtGuWQY/y3MGo58tBQRyOwfgHYUE8ojTBW6gzQakvCME2LKlA
lpc_rms=-25.63
pitch_keycenter=a#4
sample=Contrabass_overblown_sus_PP_A#4.opus

<region>
hivel=127
key=c2
lovel=0
lpc=4k3GQZ/0W8JsZHdC6/V3wh/gTkIOlg/CAnfZQesprsE99HFBXqYIwbnjDUDGp8+/17EAQM6gEkAyJjnAntjgQKrpSsGQwk1BPa4gwd0H60DWbZjAnfJNQNt6J8Cltpg/
lpc_rms=-31.51
sample=Contrabass_overblown_sus_PP_C2.opus

<region>
hikey=c3
hivel=127
lokey=b2
lovel=0
lpc=X1L1QSdgk8LY86xCfGqswokNkEL97zvCxlXeQTbjpsH0g5dBeFtewY76I0FNOLTAENRePW/z7UDWkTjBR6dsQWsmjsGyoG5BKJMYwY6AxEBDQZPA1MAjQD8/LMD8SQFA
lpc_rms=-33.07
pitch_keycenter=c3
sample=Contrabass_overblown_sus_PP_C3.opus

<region>
hikey=c4
hivel=127
lokey=b3
lovel=0
lpc=vtYlQgGLzMIlM/BCR6fxwtNWzkJM/YfCHl4yQuEKCsJDPNRBEjuBwd1GHkFD38/AbWWTQMaq+z+xRN7AsOBOQaVwvMEhZr5BE2mKwa2qdkETckDBERr/QGA1EcFviKNA
lpc_rms=-35.57
pitch_keycenter=c4
sample=Contrabass_overblown_sus_PP_C4.opus

<region>
hikey=c5
hivel=127
lokey=b4
lovel=0
lpc=0+w8Qva2wMIk3dhCJFDTwkicr0J/Wm3CkCslQm2SA8LKsshB7r+RwQZ2EEGwUovALtWhQL/e3z+THgbBwd5XQa6dq8GpcMdBqw2rwRZdsEGEHqLBUdyOQenhFMErGoFA
lpc_rms=-25.16
pitch_keycenter=C5
sample=Contrabass_overblown_sus_PP_C5.opus

<region>
hikey=d2
hivel=127
lokey=c#2
lovel=0
lpc=odcNQr3AnsLvv7BC5kKtwmzwjUIgEkbCtk4dQpxSAsJgocxBxmaUwT1uIkFqddfAQexyQDTRpkDbdwXBxgtrQdUlssF9/51BZchLwXHo1kD+ISDANVH4P64wQ8CjlfY/
lpc_rms=-27.24
pitch_keycenter=d2
sample=Contrabass_overblown_sus_PP_D2.opus

<region>
hikey=d3
hivel=127
lokey=c#3
lovel=0
lpc=sSPcQWTHfcJr9I9CLXuSwvVieUJAbSbCsvzvQRhywcHffqZBvLyKwVWoKkGvobnA7UnpP6VP0EBmgjDBo4JyQQ/MksE8oWVBcTr8wIyLjkApFj7AF/0tQC7IicCpYzBA
lpc_rms=-34.31
pitch_keycenter=d3
sample=Contrabass_overblown_sus_PP_D3.opus

<region>
hikey=d4
hivel=127
lokey=c#4
lovel=0
lpc=xVdRQRrG7sHh0AtCRikOwmkg50Gf5pfBCERQQTZHJcE54RJB/hXkwEVykkDKvTfA/p67P1xtIT8odfW/r0p+QGx7vsDiXrFASbF3wAgfQkBC5jrAsOEmQLDGO8C/vOY/
lpc_rms=-40.78
pitch_keycenter=d4
sample=Contrabass_overblown_sus_PP_D4.opus

<region>
hikey=e2
hivel=127
lokey=d#2
lovel=0
lpc=zr2XQTJvJ8KygzZCCrMzwmqDEUJjw8HBBimXQefTcsGmjzhBsKb8wKHaTUD3bge/Ld0Qv5IbtkAg4QTBwhApQdJEV8FP4EFBBP4GwRjFoUDrSTDA4W2gP7h53b+bBbo/
lpc_rms=-32.13
pitch_keycenter=e2
sample=Contrabass_overblown_sus_PP_E2.opus

<region>
hikey=e3
hivel=127
lokey=d#3
lovel=0
lpc=6ZyIQbiMHcJOyi9CaU8swhabD0IVJLnB8l6EQfnpYsHU9jlBDTsQwSQvq0A3iR7AxEa8PFudjkCyqdfAhLMQQYuXOcGuhhZBp9OKwOLC0D+R6iy/OMMkP5jk279wdJY/
lpc_rms=-38.25
pitch_keycenter=e3
sample=Contrabass_overblown_sus_PP_E3.opus

<region>
hikey=e4
hivel=127
lokey=d#4
lovel=0
lpc=F7WhQc3QLsLEiTxCoCo/wvRUHkLaD8XBe2CKQYjNbMHQGE5B96k5wXbbCEHlvbbAeScYQE3yi0CSHenAWTMNQezsIcETlORATUNZwAYXm0DyZuHAg4POQLvHz8DHpWRA
lpc_rms=-36.87
pitch_keycenter=e4
sample=Contrabass_overblown_sus_PP_E4.opus

<region>
hikey=f#2
hivel=127
lokey=f2
lovel=0
lpc=jzvhQbhvcsJpaIJCqi+CwqW/UEIeFAbCX9vJQSMvn8E8V4FBTX9JwVDjxkBg8VHAIz8HP6/35UCKRhXBlHtcQQwgj8GPeVNBJF7YwAPTMkAu/PO9mtUPPyn93L/g8Mo+
lpc_rms=-27.55
pitch_keycenter=f#2
sample=Contrabass_overblown_sus_PP_F#2.opus

<region>
hikey=f#3
hivel=127
lokey=f3
lovel=0
lpc=b90dQpVnssLuG8VCOmzGwlJupULT7E3C5QMRQrxJ6sEx8LVBCp6NwdTLDUF/GdW/83xdwNaJbUHeb6bB8DXOQTJg8sHtjLxBSB80wXf6tEDTJDvARVQPQMKFl8CFryFA
lpc_rms=-28.15
pitch_keycenter=f#3
sample=Contrabass_overblown_sus_PP_F#3.opus

<region>
hikey=f#4
hivel=127
lokey=f4
lovel=0
lpc=mogFQlRtmsJk0rNCqsO1wtdmnEJP/VHCjnQGQg9gwMEMAIJBEeJDwRBfxUDvbQHAr2ieP31w7kAhczjBCx42QcfMXcH0rSVB+ZzfwC2tKUHelD/B9AZWQXfWOMHjIIdA
lpc_rms=-31.09
pitch_keycenter=f#4
sample=Contrabass_overblown_sus_PP_F#4.opus

<region>
hikey=g#2
hivel=127
lokey=g2
lovel=0
lpc=U/MGQq4VnsJfP7dC+wG0wtNel0KhqlXCPTgWQhaN9sHHkORBPAOvwWTQc0GYXibBZ394QCNXpUBWWynByihwQSYBnsGd+oFBmxPywCuGeECL1CPAGoLLPws4j8Dzi4JA
lpc_rms=-36.06
pitch_keycenter=g#2
sample=Contrabass_overblown_sus_PP_G#2.opus

<region>
hikey=g#3
hivel=127
lokey=g3
lovel=0
lpc=ti0uQvcmycJSeNpCRiLNwta4pkL6GFLCE+MIQiLi1sGVaqlBFiBIwbChykCmh73A/TGFQE5vM0CDILPAnkM5QS94mMFDcHhBT7LjwHwz70A2hyTBClEdQfndNsE6rdRA
lpc_rms=-38.85
pitch_keycenter=g#3
sample=Contrabass_overblown_sus_PP_G#3.opus

<region>
hikey=g#4
hivel=127
lokey=g4
lovel=0
lpc=uMz9QcmhjsKxVp5Cu46bwtq5gkJAYivCJVTyQcpZucGa+ZtBCj5zwVPf30A9ZJzAKqUPP2Y4B0ERhynBuO5XQWq6ecG0RitBvu/BwIyTuECe+e3APkj9QA1E28DgOYVA
lpc_rms=-30.52
pitch_keycenter=g#4
sample=Contrabass_overblown_sus_PP_G#4.opus

<group>
group_label=FF
lpc_hicc1=127
lpc_locc1=64

<region>
hikey=a#2
hivel=127
lokey=a2
lovel=0
lpc=KeUCQpzGlcJFvqtCJAaqwmzDikJrODTCjSrcQfsGncFAoYtBK8BqwbsdOUELMBLB3RmpQDXZG0BrVv3ANiNYQZCdk8GmC4ZBr+UfwXpBwUDsqEjAliNdP8lsDL8FnCI+
lpc_rms=-21.82
pitch_keycenter=a#2
sample=Contrabass_overblown_sus_FF_A#2.opus

<region>
hikey=a#3
hivel=127
lokey=a3
lovel=0
lpc=8iAjQmPcvcKN1NRCta7Pwmror0Lm3XHCoR8hQk+298EIldJBixCbwQe9QUHL+h7ByxHqQDjE7z+fGujAxUxpQU8Yq8FSjZxBw8NQwbCnKkGvqhDBN1sCQfA8C8FLtGFA
lpc_rms=-26.42
pitch_keycenter=a#3
sample=Contrabass_overblown_sus_FF_A#3.opus

<region>
hikey=a#4
hivel=127
lokey=a4
lovel=0
lpc=OpcfQh1mq8II/8VCqBPFwjL1okLTw0nCWPkHQl9p3MGnJ7JBTVGQwdFzBEFDdL/AzbKgQDVT2j94cLXAw61ZQRRMxcGA5NJBH/2owZBXkkHzkWvBMzNbQXbhJsE7R8RA
lpc_rms=-15.68
pitch_keycenter=a#4
sample=Contrabass_overblown_sus_FF_A#4.opus

<region>
hivel=127
key=c2
lovel=0
lpc=f3LDQZ/ZVsKav21CHehrwrVCREIiGwfCR2nLQR0UpMEzjmVBwccFwePQHUDu5f+/mMZOQGheCT+pC4i/eQqfQJECPMG48l5B4DJMwU42NUHSxRDBIwfZQNVbn8BTNQJA
lpc_rms=-21.59
sample=Contrabass_overblown_sus_FF_C2.opus

<region>
hikey=c3
hivel=127
lokey=b2
lovel=0
lpc=BcPvQYLrjsJ1b6ZCyEqmwqdNjELBhjnCdAvcQZKposHyjZVBmZxkwUjCNUHZ4frAAZ1ZQCAPckBcAgTB8uxDQehUiMF2F4RB6pdGwfvMEEHOWd/AUCp/QEuCScDz7QRA
lpc_rms=-23.09
pitch_keycenter=c3
sample=Contrabass_overblown_sus_FF_C3.opus

<region>
hikey=c4
hivel=127
lokey=b3
lovel=0
lpc=bGQhQoblxMIIQeRC2aPlwmZexULI8YHC3/gnQqll/8F6KsRBICJzweKHG0F22efADLreQEjK5b85XwDAsYXXQJyEkcHIxK1B3fCOwdAAjEEcsmrBXDoZQQCdHMHV4a1A
lpc_rms=-25.99
pitch_keycenter=c4
sample=Contrabass_overblown_sus_FF_C4.opus

<region>
hikey=c5
hivel=127
lokey=b4
lovel=0
lpc=iuc5Qqbtu8KFIdJCI8zMwgtuq0IvzmjCgOshQoWjAMLFTcdB8RuYwRJLJEGgy7DAzybnQLDRxr/Fi5TAFK8UQebAjcEWELtBFCWwweRpwkFYhb3BXzezQU90XMEnL8BA
lpc_rms=-16.56
pitch_keycenter=C5
sample=Contrabass_overblown_sus_FF_C5.opus

<region>
hikey=d2
hivel=127
lokey=c#2
lovel=0
lpc=4AkLQoNMmsKbp6pCgheowhXeikKzIEPCCtwbQjJUAsIEiNFByCihwetgREFUQhDBgGvmQGUfrD/zN5fA6p81QSbxqsEMjrdBv5qXwRHuYEHnthHBwG3VQHmKwMDbm0JA
lpc_rms=-17.28
pitch_keycenter=d2
sample=Contrabass_overblown_sus_FF_D2.opus

<region>
hikey=d3
hivel=127
lokey=c#3
lovel=0
lpc=kGLYQRUed8KJr4pCzkyNwrhHckLE1yHClr3nQcBpusEFc6JBRu+NwVntQkGSLgHBMZCkQApzKUCidfDAZnxGQe97jcFi2oJB2G4ywWah90AyzazAH/lwQM0emsAetERA
lpc_rms=-24.34
pitch_keycenter=d3
sample=Contrabass_overblown_sus_FF_D3.opus

<region>
hikey=d4
hivel=127
lokey=c#4
lovel=0
lpc=CqNNQSpp6MGYIAdC9/8Jwv504kGJkpXBqQFLQRxmH8FYqw5BCuvmwInbo0AuHWjAqpIcQE1EKr8VneG+RoUcQEdmmcD92KVACJF/wBU2TUA3xDzAXB8WQCFBLsBQ3OY/
lpc_rms=-30.80
pitch_keycenter=d4
sample=Contrabass_overblown_sus_FF_D4.opus

<region>
hikey=e2
hivel=127
lokey=d#2
lovel=0
lpc=kgWUQalTIcIrTS1Cd1cqwhl9CUIw7rPBumiLQYIMX8EG4ylBMD/1wDBfZkDXbLC/FkObP3q0WUAPVsnAIkURQd0HVcE7UFtBteIywfOPA0ErFbHAhKNQQGM8PMCpK+4/
lpc_rms=-22.20
pitch_keycenter=e2
sample=Contrabass_overblown_sus_FF_E2.opus

<region>
hikey=e3
hivel=127
lokey=d#3
lovel=0
lpc=UBeGQTNRGcKXUClCc0ImwkPkC0LfV7XBxIKBQZm+XcFVzjdBks4UwYe/wEB1JWHAwhnVPyHEJkAgaaLAAST4QCAqOsEdHjVBNl/qwNpuk0BnUj3A3JICQBMbIcBPvL0/
lpc_rms=-28.31
pitch_keycenter=e3
sample=Contrabass_overblown_sus_FF_E3.opus

<region>
hikey=e4
hivel=127
lokey=d#4
lovel=0
lpc=yxydQeO7JsJLKi9CzJYvwsMhD0IDYKnBNV5gQYpROsE5KSFBzb0ZwU9880A3EL3ADAuCQJrC6T/WBpbAUe7MQANbCMER4M9A94smwAk4WkBJrrHAFJGoQKIEwMCi/mVA
lpc_rms=-26.91
pitch_keycenter=e4
sample=Contrabass_overblown_sus_FF_E4.opus

<region>
hikey=f#2
hivel=127
lokey=f2
lovel=0
lpc=3JHdQUVbbMLOl3tCa3F8wk7WTELodgTCc1rHQVxYnsHI4INBK+FZwQ1b/UD9wa7AQa1rQB5LZUB8Or3APJ8tQSuJicFZIXdB0woowTjk2ECcXlPA3agdQKYDQcDz3IA/
lpc_rms=-17.61
pitch_keycenter=f#2
sample=Contrabass_overblown_sus_FF_F#2.opus

<region>
hikey=f#3
hivel=127
lokey=f3
lovel=0
lpc=XcQaQudsrcJxv71CPMO/wlSzoUJTQkvCni0QQoeZ6sGgTblBn46YwYHrM0GIUZnAOZCBPxp4G0ESvoHBWRe0QRKc88GOW+BBOkeOwQBuPUEbQfDACOyXQNqlw8DTI0lA
lpc_rms=-18.23
pitch_keycenter=f#3
sample=Contrabass_overblown_sus_FF_F#3.opus

<region>
hikey=f#4
hivel=127
lokey=f4
lovel=0
lpc=k/wCQsD0lcIBg6xCz1euwjpQl0KMnkzC3P4DQrbmvcGko4BBuetIwXBZ3EA/JT/AglZXQOA/lUBVVhXBMp4aQSpuUMF2bSVBOZXGwMHIDEFt1hrB7Tc4QUa0NsGaepVA
lpc_rms=-21.08
pitch_keycenter=f#4
sample=Contrabass_overblown_sus_FF_F#4.opus

<region>
hikey=g#2
hivel=127
lokey=g2
lovel=0
lpc=Cl4EQrnSmcIlJ7FCh0muwmmRkkK3LE7CLVYQQsQN6MFGfdhBYJyuwX7bgEGX9kPBT6fmQPjxzz8isfnAybxXQQxypcHyb6BBJ+tPwY7gDkF1SMTAx41zQDkdssA7nYtA
lpc_rms=-26.06
pitch_keycenter=g#2
sample=Contrabass_overblown_sus_FF_G#2.opus

<region>
hikey=g#3
hivel=127
lokey=g3
lovel=0
lpc=k5srQjCexMLRUdRCF0HJwin1pkJ+llnCu6USQpVP5sHN97JB5i9TwavW0ECRob7AgVGmQPudzz8SAKDAjxkwQQbaoMHnf5pB4A8+wSVQPEGR0VnB4KRAQWLvUsGJPfFA
lpc_rms=-28.86
pitch_keycenter=g#3
sample=Contrabass_overblown_sus_FF_G#3.opus

<region>
hikey=g#4
hivel=127
lokey=g4
lovel=0
lpc=UBb5QeShisLoeZhC5AWWwitvfkKtsCfCHrbsQc8EtMGvJJhB8hV6wbLCAkEKv9DASolZQGSxrUDDhQbBrKtAQQ2ngMFCyFJB5N4MwcTS+0CuvQvB/QoOQTBm+cAXv5NA
lpc_rms=-20.53
pitch_keycenter=g#4
sample=Contrabass_overblown_sus_FF_G#4.opus

